<svg xmlns="http://www.w3.org/2000/svg" viewBox="0 0 150 150"><defs><style>.cls-1{fill:#fff;}</style></defs><g id="Layer_2" data-name="Layer 2"><g id="Layer_1-2" data-name="Layer 1"><circle class="cls-1" cx="75" cy="75" r="75"/><path d="M124.48,41.84l-8.81-9.29a4.13,4.13,0,0,0-3.36-1.12l-6.72,1.76H99.34L74,27.59h-.48L76,19.9a1,1,0,0,0-.48-1.12l-4.8-2.08a.73.73,0,0,0-.8,0l-4.8,2.08a.82.82,0,0,0-.48,1.12L67,27.59h-.48L36.09,33.83c-.32,0-.64.32-.8.8h-1c-3.84,0-5.44,3.52-5.6,3.68a.75.75,0,0,0,.16,1c.32.33.48.49.8.49a4.1,4.1,0,0,1,3.36,1.6L44.42,60.57h.16L47,74.18v.16h0l1.6,4.16v5.93a2.14,2.14,0,0,0,1.28,2.08l2.25,1.12c-.16.32-.64.48-1.61.8s-2.72.8-3,2.56h0l-7.2,38a1.2,1.2,0,0,0,.16.8,1.22,1.22,0,0,0,.8.32H99.5c.32,0,.48-.16.8-.32a.7.7,0,0,0,.16-.8L92.78,90.83h0c-.32-1.76-1.93-2.24-3-2.56-1-.32-1.44-.48-1.6-.8l2.24-1.12a2.51,2.51,0,0,0,1.29-2.08V78.34l1.6-4.16h0V74l5-28.5a1.37,1.37,0,0,0,1.12,0l11.21-2.88a1.53,1.53,0,0,1,1.6.48l1.76,2.08a1.92,1.92,0,0,1,.16,2.24l-1.76,3.2a7.29,7.29,0,0,0-.8,3.21V59a3.09,3.09,0,0,1-.48,1.6l-2.56,4a8.64,8.64,0,0,0-1.28,4.49v3a2,2,0,0,1-.8,1.6l-.48.32a2.27,2.27,0,0,1-1,.32l-1.12.16h-2.56c-.32,0-.48,0-.64.16A3.51,3.51,0,0,0,99.5,78.5l.8,2.41a2.41,2.41,0,0,0,2.24,1.6h.32l6.25-1.12a5.72,5.72,0,0,0,4.64-4L125,46.16A3.39,3.39,0,0,0,124.48,41.84ZM96.3,34.63H92.94l-5.29-1.92Zm-25.3-5h2.56l13.77,5.12H71Zm0,6.88H91L86.37,72.74a31.24,31.24,0,0,1-15.37,0Zm-4.48-6.88h2.56v5.12H52.59Zm2.56,6.88V72.74a31.24,31.24,0,0,1-15.37,0L49.06,36.55ZM53.87,32.23,47,34.79H41.7Zm-19.7,8A5.56,5.56,0,0,0,30.81,38a4.23,4.23,0,0,1,3-1.44H40.1l3.2,19.06Zm14.25,33.3L42,36.71h5l4.81,36.35a6.66,6.66,0,0,1-2.57.8C48.74,73.7,48.58,73.7,48.42,73.54ZM46.34,128H42L48.9,91.79a4.09,4.09,0,0,1,2.73.32Zm22.74,0H48.42l5.29-35.55a35.57,35.57,0,0,1,15.37,0ZM71,128V92.27a35.57,35.57,0,0,1,15.37,0l5.29,35.55H71ZM91,91.79,97.9,128H93.58L88.13,92.11A3.73,3.73,0,0,1,91,91.79Zm-2.4-1.92a4.79,4.79,0,0,0-1.6.64,36.47,36.47,0,0,0-17.13,0,34.5,34.5,0,0,0-17.13,0,4.79,4.79,0,0,0-1.6-.64,2.94,2.94,0,0,0,2.24-2.08H86.05A4.4,4.4,0,0,0,88.61,89.87Zm1.12-5.6a.56.56,0,0,1-.16.32L87,85.87H53.07L50.5,84.59c-.16,0-.16-.16-.16-.32V79.14H89.73Zm.32-7H49.86l-.64-1.44a9.9,9.9,0,0,0,3.69-1.12,37.33,37.33,0,0,0,8.48,1.12A31.31,31.31,0,0,0,70,74.66a31.26,31.26,0,0,0,8.65,1.12,30.9,30.9,0,0,0,8.48-1.12,7.12,7.12,0,0,0,3.68,1.12Zm1.61-3.68a1,1,0,0,1-.81.32,6.58,6.58,0,0,1-2.56-.8L93.1,36.71h5Z"/><circle cx="80.04" cy="81.23" r="0.96"/><circle cx="76.36" cy="81.23" r="0.96"/><circle cx="72.67" cy="81.23" r="0.96"/><circle cx="69.15" cy="81.23" r="0.96"/><circle cx="65.47" cy="81.23" r="0.96"/><circle cx="83.72" cy="81.23" r="0.96"/><circle cx="87.41" cy="81.23" r="0.96"/><circle cx="61.79" cy="81.23" r="0.96"/><circle cx="91.09" cy="81.23" r="0.96"/><circle cx="81.96" cy="83.95" r="0.96"/><circle cx="78.28" cy="83.95" r="0.96"/><circle cx="74.6" cy="83.95" r="0.96"/><circle cx="70.91" cy="83.95" r="0.96"/><circle cx="67.39" cy="83.95" r="0.96"/><circle cx="85.64" cy="83.95" r="0.96"/><circle cx="89.33" cy="83.95" r="0.96"/><circle cx="63.71" cy="83.95" r="0.96"/></g></g></svg>