<?xml version="1.0" encoding="iso-8859-1"?>
<!-- Generator: Adobe Illustrator 19.0.0, SVG Export Plug-In . SVG Version: 6.00 Build 0)  -->
<svg version="1.1" id="Layer_1" xmlns="http://www.w3.org/2000/svg" xmlns:xlink="http://www.w3.org/1999/xlink" x="0px" y="0px"
	 viewBox="0 0 512.001 512.001" style="enable-background:new 0 0 512.001 512.001;" xml:space="preserve">
<g>
	<g>
		<path d="M478.67,215.061c-21.392-21.319-49.652-33.059-79.574-33.059h-0.242c-12.467,0.027-24.554,2.038-36.108,5.989v-32.065
			c0-5.771-4.679-10.449-10.449-10.449H10.45c-5.77,0-10.449,4.678-10.449,10.449V428.41c0,46.092,37.499,83.592,83.591,83.592
			h195.56c46.092,0,83.591-37.499,83.591-83.592v-9.307c4.884-1.782,9.29-4.795,12.75-8.848c2.161-2.532,5.577-3.835,8.906-3.4
			c4.845,0.632,9.79,0.953,14.695,0.953c30.97,0,59.869-12.302,81.376-34.64c18.883-19.615,30.029-45.38,31.383-72.548
			C513.464,268.377,501.678,237.991,478.67,215.061z M341.846,357.096c0,0.026,0,0.052,0,0.078v71.236
			c0,34.569-28.124,62.694-62.694,62.694H83.592c-34.569,0-62.694-28.124-62.694-62.694V210.111h259.645
			c5.77,0,10.449-4.678,10.449-10.449s-4.679-10.449-10.449-10.449H20.899v-22.838h320.947V357.096z M362.744,255.716
			c2.419-0.883,4.737-2.057,6.893-3.547c8.653-5.982,18.8-9.156,29.323-9.178h0.134c13.673,0,26.645,5.423,36.525,15.27
			c9.91,9.876,15.377,22.868,15.392,36.581c0.018,13.879-5.376,26.931-15.183,36.752c-9.808,9.82-22.853,15.228-36.731,15.228
			c-5.218,0-10.358-0.768-15.274-2.282c-6.945-2.141-14.117-2.669-21.078-1.633v-87.19H362.744z M490.985,299.579
			c-1.103,22.128-10.182,43.114-25.568,59.095c-17.53,18.208-41.083,28.236-66.322,28.236c-4.005,0-8.038-0.261-11.991-0.777
			c-8.923-1.163-17.739,1.573-24.361,7.384v-29.28c4.84-1.321,9.979-1.25,14.924,0.274c6.912,2.128,14.122,3.208,21.428,3.208
			c19.465,0,37.761-7.585,51.517-21.358c13.757-13.774,21.319-32.079,21.296-51.545c-0.022-19.299-7.673-37.538-21.538-51.358
			c-13.824-13.778-32.034-21.366-51.277-21.366h-0.156c-12.815,0.027-25.21,3.379-36.193,9.732v-21.433
			c11.409-4.941,23.538-7.465,36.13-7.492h0.221c24.354,0,47.375,9.576,64.823,26.964
			C482.681,248.564,492.294,273.321,490.985,299.579z"/>
	</g>
</g>
<g>
	<g>
		<path d="M258.472,60.555c-4.037-5.341-6.706-8.87-6.706-15.602c0-6.684,2.668-10.215,6.706-15.56
			c3.201-4.235,6.827-9.034,8.99-15.73c1.772-5.492-1.241-11.381-6.732-13.154c-5.493-1.772-11.381,1.241-13.155,6.732
			c-1.076,3.335-3.254,6.217-5.775,9.553c-4.869,6.445-10.931,14.466-10.931,28.207c0,13.693,6.064,21.713,10.935,28.157
			c3.975,5.258,6.601,8.731,6.601,15.173c0,6.711-2.909,10.679-6.936,16.17c-4.723,6.439-10.6,14.453-10.6,27.159
			c0,5.771,4.679,10.449,10.449,10.449s10.449-4.678,10.449-10.449c0-5.604,2.247-8.929,6.554-14.801
			c4.893-6.672,10.982-14.975,10.982-28.528C269.301,74.879,263.297,66.937,258.472,60.555z"/>
	</g>
</g>
<g>
	<g>
		<path d="M189.76,60.554c-4.039-5.341-6.706-8.87-6.706-15.602c0-6.685,2.668-10.215,6.705-15.56
			c3.201-4.235,6.827-9.034,8.99-15.73c1.772-5.492-1.241-11.381-6.732-13.154c-5.492-1.772-11.381,1.241-13.155,6.732
			c-1.076,3.335-3.254,6.217-5.774,9.553c-4.87,6.445-10.931,14.466-10.931,28.207c0,13.693,6.063,21.713,10.934,28.156
			c3.976,5.258,6.601,8.731,6.601,15.173c0,6.711-2.909,10.679-6.936,16.17c-4.722,6.441-10.599,14.455-10.599,27.161
			c0,5.771,4.679,10.449,10.449,10.449c5.77,0,10.449-4.678,10.449-10.449c0-5.604,2.247-8.929,6.552-14.802
			c4.893-6.672,10.982-14.974,10.982-28.528C200.588,74.878,194.584,66.936,189.76,60.554z"/>
	</g>
</g>
<g>
	<g>
		<path d="M121.048,60.555c-4.037-5.341-6.706-8.87-6.706-15.602c0-6.684,2.668-10.215,6.706-15.56
			c3.201-4.235,6.827-9.034,8.99-15.73c1.772-5.492-1.241-11.381-6.732-13.154c-5.493-1.772-11.381,1.241-13.155,6.732
			c-1.076,3.335-3.254,6.217-5.775,9.553C99.506,23.24,93.445,31.26,93.445,45.002c0,13.693,6.064,21.713,10.935,28.157
			c3.975,5.258,6.601,8.731,6.601,15.173c0,6.711-2.909,10.679-6.936,16.17c-4.723,6.439-10.6,14.453-10.6,27.159
			c0,5.771,4.679,10.449,10.449,10.449c5.77,0,10.449-4.678,10.449-10.449c0-5.604,2.247-8.929,6.554-14.801
			c4.893-6.672,10.982-14.975,10.982-28.528C131.877,74.879,125.873,66.937,121.048,60.555z"/>
	</g>
</g>
<g>
	<g>
		<path d="M102.041,438.732c-15.368-9.375-24.542-25.702-24.542-43.677V329.52c0-5.771-4.679-10.449-10.449-10.449
			s-10.449,4.678-10.449,10.449v65.536c0,25.32,12.918,48.318,34.557,61.518c1.7,1.037,3.578,1.53,5.431,1.53
			c3.522,0,6.961-1.782,8.931-5.009C108.525,448.168,106.968,441.738,102.041,438.732z"/>
	</g>
</g>
<g>
	<g>
		<path d="M128.617,446.173l-0.344-0.001c-0.026,0-0.052,0-0.078,0c-5.734,0-10.405,4.628-10.447,10.373
			c-0.042,5.77,4.602,10.482,10.373,10.524l0.497,0.002c5.77,0,10.449-4.678,10.449-10.449
			C139.067,450.851,134.387,446.173,128.617,446.173z"/>
	</g>
</g>
<g>
	<g>
		<path d="M313.12,189.214h-0.327c-5.77,0-10.449,4.678-10.449,10.449s4.679,10.449,10.449,10.449h0.327
			c5.77,0,10.449-4.678,10.449-10.449S318.89,189.214,313.12,189.214z"/>
	</g>
</g>
<g>
</g>
<g>
</g>
<g>
</g>
<g>
</g>
<g>
</g>
<g>
</g>
<g>
</g>
<g>
</g>
<g>
</g>
<g>
</g>
<g>
</g>
<g>
</g>
<g>
</g>
<g>
</g>
<g>
</g>
</svg>
