<svg xmlns="http://www.w3.org/2000/svg" viewBox="0 0 150 150"><defs><style>.cls-1{fill:#fff;}</style></defs><g id="Layer_2" data-name="Layer 2"><g id="Layer_1-2" data-name="Layer 1"><circle class="cls-1" cx="75" cy="75" r="75"/><path d="M100.9,82.81c12-4.14,19.8-13.49,19.8-23.9,0-8.82-5.58-16.83-14.72-21.77l5.75-7.21a.71.71,0,0,0,0-.81,1,1,0,0,0-.84-.4H39.45a.71.71,0,0,0-.51.14h0l-3.89,1.6c-.17.13-.51.27-.51.53a1,1,0,0,0,.17.67L55,57.57a8.43,8.43,0,0,1,.17,10L53,70.66h0c-1,1.47-.33,2.67.17,3.74.68,1.07.85,1.87.17,2.8L42.84,91.49c-3.39,4.41-3.9,8.15-3.9,10,0,4.67,2.54,19.77,36.06,19.77h0c33.52,0,36.06-15.23,36.06-19.77,0-1.87-.51-5.61-3.9-10Zm17.77-23.9c0,9.88-7.28,18.69-18.79,22.57l-2.37-3.07c10-3.21,16.59-11,16.59-19.5,0-7.08-4.4-13.49-11.68-17.37l2.37-3.07C113.42,43,118.67,50.63,118.67,58.91Zm-17.26-16c6.77,3.61,10.66,9.62,10.66,16,0,8-6.26,15.09-15.57,18l-6.94-9.35a8.43,8.43,0,0,1,.17-10ZM55,73.6c-.51-.94-.85-1.6-.34-2.27l2.2-3.07a9.82,9.82,0,0,0-.34-11.62L36.91,31.39l2.2-.93L60.27,57.57a8.43,8.43,0,0,1,.17,10L55.36,74.4A1.58,1.58,0,0,0,55,73.6Zm20,46.07c-21.33,0-34-6.81-34-18.29,0-2.81,1.35-6.15,3.55-9.22L55,77.87h0l7.27-9.61A9.84,9.84,0,0,0,62,56.64L41.15,30.19h67.7L88,56.77a9.83,9.83,0,0,0-.17,11.62L105.47,92.3a15,15,0,0,1,3.55,9.08C109,112.86,96.33,119.67,75,119.67Z"/><path d="M75,117.67c19.47,0,29.62-6.14,30.81-14.56H44.19C45.55,111.53,55.53,117.67,75,117.67Z"/><ellipse cx="77.37" cy="56.24" rx="1.02" ry="0.8"/><ellipse cx="72.8" cy="56.24" rx="1.02" ry="0.8"/><ellipse cx="72.8" cy="62.38" rx="1.02" ry="0.8"/><ellipse cx="68.4" cy="56.24" rx="1.02" ry="0.8"/><ellipse cx="81.77" cy="56.24" rx="1.02" ry="0.8"/><ellipse cx="79.57" cy="52.76" rx="1.02" ry="0.8"/><ellipse cx="75" cy="52.76" rx="1.02" ry="0.8"/><ellipse cx="70.6" cy="52.76" rx="1.02" ry="0.8"/><ellipse cx="66.03" cy="52.76" rx="1.02" ry="0.8"/><ellipse cx="83.97" cy="52.76" rx="1.02" ry="0.8"/><ellipse cx="77.37" cy="49.16" rx="1.02" ry="0.8"/><ellipse cx="72.8" cy="49.16" rx="1.02" ry="0.8"/><ellipse cx="68.4" cy="49.16" rx="1.02" ry="0.8"/><ellipse cx="63.83" cy="49.16" rx="1.02" ry="0.8"/><ellipse cx="81.77" cy="49.16" rx="1.02" ry="0.8"/><ellipse cx="86.17" cy="49.16" rx="1.02" ry="0.8"/><ellipse cx="79.57" cy="45.69" rx="1.02" ry="0.8"/><ellipse cx="75" cy="45.69" rx="1.02" ry="0.8"/><ellipse cx="70.6" cy="45.69" rx="1.02" ry="0.8"/><ellipse cx="66.03" cy="45.69" rx="1.02" ry="0.8"/><ellipse cx="61.63" cy="45.69" rx="1.02" ry="0.8"/><ellipse cx="83.97" cy="45.69" rx="1.02" ry="0.8"/><ellipse cx="88.54" cy="45.69" rx="1.02" ry="0.8"/><ellipse cx="77.37" cy="62.38" rx="1.02" ry="0.8"/><ellipse cx="79.57" cy="59.31" rx="1.02" ry="0.8"/><ellipse cx="75" cy="59.31" rx="1.02" ry="0.8"/><ellipse cx="70.6" cy="59.31" rx="1.02" ry="0.8"/><path d="M75,92.3a.91.91,0,0,0,1-.94h0c0-.53-.51-.8-1-.8a1,1,0,0,0-1,.93C74,92,74.49,92.3,75,92.3Z"/><path d="M75,88.16a.91.91,0,0,0,1-.94h0c0-.53-.51-.8-1-.8a1,1,0,0,0-1,.93C74,87.89,74.49,88.16,75,88.16Z"/><path d="M75,96.3a.9.9,0,0,0,1-.93h0c0-.54-.51-.8-1-.8a1,1,0,0,0-1,.93C74,96,74.49,96.3,75,96.3Z"/><path d="M75,84a.9.9,0,0,0,1-.93h0c0-.53-.51-.8-1-.8a1,1,0,0,0-1,.93C74,83.75,74.49,84,75,84Z"/><path d="M75,100.44a.9.9,0,0,0,1-.93h0c0-.54-.51-.8-1-.8a1,1,0,0,0-1,.93C74,100.17,74.49,100.44,75,100.44Z"/><path d="M75,71.86a.9.9,0,0,0,1-.93h0c0-.54-.51-.8-1-.8a1,1,0,0,0-1,.93C74,71.59,74.49,71.86,75,71.86Z"/><path d="M75,80a.91.91,0,0,0,1-.94h0c0-.53-.51-.8-1-.8a1,1,0,0,0-1,.94C74,79.74,74.49,80,75,80Z"/><path d="M75,67.72a.9.9,0,0,0,1-.93h0c0-.54-.51-.8-1-.8a1,1,0,0,0-1,.93C74,67.45,74.49,67.72,75,67.72Z"/><path d="M75,75.87a.91.91,0,0,0,1-.94h0c0-.53-.51-.8-1-.8a1,1,0,0,0-1,.94C74,75.6,74.49,75.87,75,75.87Z"/></g></g></svg>