<svg xmlns="http://www.w3.org/2000/svg" viewBox="0 0 150 150"><defs><style>.cls-1{fill:#fff;}</style></defs><g id="Layer_2" data-name="Layer 2"><g id="Layer_1-2" data-name="Layer 1"><circle class="cls-1" cx="75" cy="75" r="75"/><path d="M30.36,19.08v4.57A11.73,11.73,0,0,0,42.08,35.38H104a11.73,11.73,0,0,0,11.72-11.73V19.08Zm28,21.2v8.4H87.71v-8.4ZM39.14,50.68a3.91,3.91,0,0,0-3.85,3.21L23.34,120.33h99.41l-12-66.44A3.91,3.91,0,0,0,107,50.68ZM73,58.14A27.36,27.36,0,1,1,45.69,85.5,27.39,27.39,0,0,1,73,58.14ZM73,66A19.54,19.54,0,1,0,92.58,85.5,19.56,19.56,0,0,0,73,66Zm7.72,10a3.91,3.91,0,0,1,2.17,7l-7.54,5.67a3.91,3.91,0,0,1-4.7-6.25l7.54-5.67a3.89,3.89,0,0,1,2.53-.78Z"/></g></g></svg>