<svg xmlns="http://www.w3.org/2000/svg" viewBox="0 0 150 150"><defs><style>.cls-1{fill:#fff;}</style></defs><g id="Layer_2" data-name="Layer 2"><g id="Layer_1-2" data-name="Layer 1"><circle class="cls-1" cx="75" cy="75" r="75"/><circle cx="77.15" cy="98.56" r="0.89"/><circle cx="73.3" cy="98.56" r="0.89"/><circle cx="69.3" cy="98.56" r="0.89"/><circle cx="65.45" cy="98.56" r="0.89"/><circle cx="81.14" cy="98.56" r="0.89"/><circle cx="75.22" cy="101.97" r="0.89"/><circle cx="71.22" cy="101.97" r="0.89"/><circle cx="67.37" cy="101.97" r="0.89"/><circle cx="79.07" cy="101.97" r="0.89"/><circle cx="77.15" cy="105.38" r="0.89"/><circle cx="73.3" cy="105.38" r="0.89"/><circle cx="69.3" cy="105.38" r="0.89"/><circle cx="65.45" cy="105.38" r="0.89"/><circle cx="81.14" cy="105.38" r="0.89"/><path d="M120.54,74.28c-1.93-23.85-11.4-25.77-20.14-25.77H94.92V42.43H96.4a1,1,0,0,0,.89-.89V38.88A1,1,0,0,0,96.4,38H94.92C94.47,27.62,86.48,20.81,74,20.51V14.29a4.41,4.41,0,0,0-.89-8.73A4.36,4.36,0,0,0,68.7,10a4.43,4.43,0,0,0,3.56,4.29v6.22C60,20.81,51.82,27.62,51.38,38H49.9a1,1,0,0,0-.89.89v2.66a1,1,0,0,0,.89.89h.29L43.82,48.8a.89.89,0,0,0-.14,1,1,1,0,0,0,.88.59h7v64.28a6.72,6.72,0,0,0,5.93,6.66V126h5.77v-.89a3.67,3.67,0,0,1,3.71-3.7H79.52a3.67,3.67,0,0,1,3.7,3.7V126H89v-4.59a6.85,6.85,0,0,0,5.93-6.66V99.3h5.48c2.52,0,10.07,0,15.25-5.62C119.65,89.38,121.28,82.86,120.54,74.28ZM93.14,48.51H53.3V42.43H93.14Zm19.4,25.77c.45,5.92-.59,10.21-3.26,13C105.88,91,101,91,99.21,91H94.92V56.8h4.29C104,56.8,111.06,56.8,112.54,74.28ZM93.14,90.86H89V59.76l-2.07-3H93V90.86ZM72.7,87.6h1v3.26h-1Zm-.89-1.77a1,1,0,0,0-.88.89v4.14H63.22V59.76l-2.07-3H72.26v29Zm-8.59,17h.15a.89.89,0,1,0,0-1.78h-.15V92.64h20v8.44h-.15a.89.89,0,0,0,0,1.78h.15V110h-20Zm20-43.1v31.1h-7.7V86.72a1,1,0,0,0-.89-.89H74v-29h11.1ZM53.3,55V50.28H93.14V55Zm-2.37-15.4h1.48a1,1,0,0,0,.89-.89c0-10.07,7.85-16.59,20-16.59s20,6.52,20,16.59a1,1,0,0,0,.89.89h1.48v.89H50.93Zm-4.29,8.89,4.88-4.89v4.89ZM59.37,56.8l-2.07,3v31.1H53.15V56.8ZM53.3,114.71V92.64h4.15v5a1,1,0,0,0-.89.89.85.85,0,0,0,.89.89v4.89a1,1,0,0,0-.89.89.86.86,0,0,0,.89.89v3.55H56.12v1.48a4.61,4.61,0,0,0,1.33,3.11v5A4.35,4.35,0,0,1,53.3,114.71Zm5.93-54.36,1.18-1.77,1.19,1.77v64H59.23Zm7.7,59.39H63.22V116h20v3.7Zm20.29,4.59H84.85v-64L86,58.58l1.19,1.77v64Zm5.92-9.62A4.94,4.94,0,0,1,89,119.59v-5.48a4.61,4.61,0,0,0,1-2.81v-1.48H89v-3.56a1,1,0,0,0,.89-.88.85.85,0,0,0-.89-.89V99.6c.15,0,.3-.15.45-.15h3.7Zm21.18-22.22c-4.74,5-11.7,5-14.07,5H89V92.79H99.21c4.89,0,8.74-1.48,11.41-4.3,3-3.26,4.14-8,3.7-14.51-1.33-16.59-7.7-18.81-13.92-19.11H94.92V50.13h5.48c6.51,0,16.44,0,18.51,24.15C119.5,82.57,118,88.64,114.32,92.49Z"/><circle cx="97.44" cy="52.5" r="1.04"/></g></g></svg>