<svg xmlns="http://www.w3.org/2000/svg" viewBox="0 0 150 150"><defs><style>.cls-1{fill:#fff;}</style></defs><g id="Layer_2" data-name="Layer 2"><g id="Layer_1-2" data-name="Layer 1"><circle class="cls-1" cx="75" cy="75" r="75"/><circle cx="72.14" cy="88.31" r="0.93"/><circle cx="67.79" cy="88.31" r="0.93"/><circle cx="63.59" cy="88.31" r="0.93"/><circle cx="76.34" cy="88.31" r="0.93"/><circle cx="80.69" cy="88.31" r="0.93"/><circle cx="84.88" cy="88.31" r="0.93"/><circle cx="72.14" cy="81.16" r="0.93"/><circle cx="67.79" cy="81.16" r="0.93"/><circle cx="63.59" cy="81.16" r="0.93"/><circle cx="76.34" cy="81.16" r="0.93"/><circle cx="80.69" cy="81.16" r="0.93"/><circle cx="84.88" cy="81.16" r="0.93"/><circle cx="69.97" cy="84.74" r="0.93"/><circle cx="65.61" cy="84.74" r="0.93"/><circle cx="74.16" cy="84.74" r="0.93"/><circle cx="78.51" cy="84.74" r="0.93"/><circle cx="82.71" cy="84.74" r="0.93"/><path d="M111.14,111.46a9.68,9.68,0,0,0-9.63-9.63,10.23,10.23,0,0,0-7.46,3.42c.31-3,.78-5.28,1.09-7.61.15-1.25.46-2.49.62-3.73h2.95a.94.94,0,0,0,0-1.87H90.63V30h-4V16.37h7V14.5H54.89v1.87h6.84V30H57.85V92H49.77a.94.94,0,1,0,0,1.87h2.95c.15,1.24.46,2.48.62,3.73A83.51,83.51,0,0,1,54.89,114c0,6.22-.77,13-1.24,18.18-.31,2.8-.62,5.13-.62,6.37a1,1,0,0,0,.93.93H94.67a1,1,0,0,0,.93-.93c0-1.24-.31-3.42-.62-6.37-.31-2.49-.62-5.44-.77-8.39a9.42,9.42,0,0,0,7.45,3.42,9.68,9.68,0,0,0,9.64-9.64ZM84.88,69.82H74.78V31.91h10.1Zm-11.81,0H63.59V31.91h9.48ZM88.92,31.91V73.55l-2.17-3.26V31.91Zm-4-1.87H74.78V16.37h10.1ZM63.59,16.37h9.48V30H63.59ZM61.73,31.91V70.44l-2,3.11V31.91Zm-2,45.84H88.92V92H59.71Zm0,16.16h2.8v3.88h-2.8Zm4.82,3.88V93.91h8.85v3.88Zm10.56,0V93.91H84v3.88Zm10.72,0V93.91h3.11v3.88ZM54.89,137.57c0-1.24.31-2.95.47-5.13.47-5,1.24-12,1.24-18.33a85.89,85.89,0,0,0-1.55-16.63,33.3,33.3,0,0,0-.62-3.42h3.26v5.75h4.66a.9.9,0,0,0,.93.93,1,1,0,0,0,.94-.93h8.7a.89.89,0,0,0,.93.93,1,1,0,0,0,.93-.93h8.7a.9.9,0,0,0,.94.93,1,1,0,0,0,.93-.93h5V94.06h3.73a27.31,27.31,0,0,1-.62,3.42,114,114,0,0,0-1.56,13v1.09h0v2.49c0,6.37.78,13.2,1.25,18.33.15,2.18.46,3.89.46,5.13Zm46.77-12.28a7.69,7.69,0,0,1-7.77-7.77h0c0-1.24-.15-2.48-.15-3.57v-3a7.92,7.92,0,0,1,7.77-7.3,7.79,7.79,0,0,1,7.77,7.76v6.22A7.62,7.62,0,0,1,101.66,125.29Z"/></g></g></svg>