<svg xmlns="http://www.w3.org/2000/svg" viewBox="0 0 150 150"><defs><style>.cls-1{fill:#fff;}</style></defs><g id="Layer_2" data-name="Layer 2"><g id="Layer_1-2" data-name="Layer 1"><circle class="cls-1" cx="75" cy="75" r="75"/><path d="M108.66,84a13,13,0,0,0-.58-25.65L109,54a1.59,1.59,0,0,0-1.24-1.87,1.63,1.63,0,0,0-.31,0H38.5a1.59,1.59,0,0,0-1.58,1.59,1.27,1.27,0,0,0,0,.28l6.23,33.89H33.27A1.59,1.59,0,0,0,33.43,91H43.76l1,5.64a1.6,1.6,0,0,0,1.56,1.3H98.84a1.6,1.6,0,0,0,1.56-1.28L101.53,91h11a1.59,1.59,0,1,0,.26-3.16,1.13,1.13,0,0,0-.26,0H102.17l.86-4.29A12.33,12.33,0,0,0,108.66,84Zm-8.37-2.94-.54,2.68H45.65l-.92-5h56L100.29,81ZM44.18,75.8l-.9-4.89h59.05l-1,4.89Zm58.77-8H42.7L41.82,63h62.1Zm4.48-6a9.33,9.33,0,0,1,8.67,7.94,9.68,9.68,0,0,1-7.91,11.1,9,9,0,0,1-4.47-.76Zm-2-6.6-.93,4.6H41.24l-.85-4.6ZM97.54,94.76H47.67L47,91H98.3ZM46.4,87.83l-.21-1.11h53l-.23,1.11Z"/></g></g></svg>