<svg xmlns="http://www.w3.org/2000/svg" viewBox="0 0 150 150"><defs><style>.cls-1{fill:#fff;}</style></defs><g id="Layer_2" data-name="Layer 2"><g id="Layer_1-2" data-name="Layer 1"><circle class="cls-1" cx="75" cy="75" r="75"/><path d="M97.71,81.07l3.22-.8c12.59-3.48,35.91-9.65,35.91-26.26,0-4-1.34-7-4-9.12-4.56-3.75-12.06-3.75-16.08-3.48l1.61-3.48a1.7,1.7,0,0,0,0-1.61,1.48,1.48,0,0,0-1.34-.81H30.44a1.47,1.47,0,0,0-1.34.81,1.7,1.7,0,0,0,0,1.61L35.8,53.2l3,7a32.7,32.7,0,0,0,3.75,6.7,45.31,45.31,0,0,1,5.09,9.38l1.61,4L54,88.85a1.64,1.64,0,0,1,.26,1.07C53,93.4,43.31,97.16,28,97.16a1.61,1.61,0,1,0,0,3.21H44.38v3.22a4.51,4.51,0,0,0,4.55,4.55H98.25a4.51,4.51,0,0,0,4.55-4.55v-3.22h16.35a1.61,1.61,0,1,0,0-3.21c-15,0-24.66-3.76-26.26-7.24a2.06,2.06,0,0,1,.26-1.07Zm33.23-33.76a8.3,8.3,0,0,1,2.95,6.7c0,13.93-22,19.83-33.77,23a1,1,0,0,0-.8.27l.27-1.07a45.31,45.31,0,0,1,5.09-9.38,32.7,32.7,0,0,0,3.75-6.7l6.7-15.54C118.08,44.63,126.39,43.55,130.94,47.31ZM114.33,39,109,51.06H38L32.85,39ZM41.43,59.1l-2.14-4.83h68.34l-1.88,4.83a27.78,27.78,0,0,1-3.48,6.16l-2.42,4H47.33l-2.42-4A45.42,45.42,0,0,1,41.43,59.1Zm58.16,45a1.26,1.26,0,0,1-1.34,1.34H48.93a1.26,1.26,0,0,1-1.34-1.34v-3.21H99.85v3.21Zm-1.34-6.43H48.93c3.76-1.61,6.7-3.48,7.78-5.63H90.47C91.55,94.21,94.23,96.08,98.25,97.69Zm-7.78-9.91c-.26.26-.26.53-.53,1.07H57a2,2,0,0,0-.53-1.07L51.61,79.2l-1.6-4a10.1,10.1,0,0,0-1.34-3h49c-.54,1.07-.8,1.88-1.34,3L95,78.93h0Z"/></g></g></svg>