<svg xmlns="http://www.w3.org/2000/svg" viewBox="0 0 150 143.45"><defs><style>.cls-1{fill:#fff;}</style></defs><g id="Layer_2" data-name="Layer 2"><g id="Layer_1-2" data-name="Layer 1"><ellipse class="cls-1" cx="75" cy="71.72" rx="75" ry="71.72"/><path d="M61.42,18.21A17.78,17.78,0,0,0,35,33.71V98.92a17.78,17.78,0,0,0,26.4,15.5l56.93-31.61a18.83,18.83,0,0,0,0-32.93Zm51.35,54.43-57,31.67a6.16,6.16,0,0,1-9.08-5.39V33.76a6.15,6.15,0,0,1,6.16-6.15,6.07,6.07,0,0,1,3,.77l56.93,31.67a7.21,7.21,0,0,1,0,12.59Z"/></g></g></svg>