<svg xmlns="http://www.w3.org/2000/svg" viewBox="0 0 150 150"><defs><style>.cls-1{fill:#fff;}</style></defs><g id="Layer_2" data-name="Layer 2"><g id="Layer_1-2" data-name="Layer 1"><circle class="cls-1" cx="75" cy="75" r="75"/><path d="M128.15,25.94H96.78a1.12,1.12,0,0,0-1,1v1.22H43.11a1.08,1.08,0,0,0-1,.69,1.52,1.52,0,0,0,.17,1.22l2.27,2.27H42.07l-4.88,3.13a1,1,0,0,0,0,1.75c1.05.52,3.83,2.44,4.7,4.35,1.57,19,8.37,29.1,10.63,31.89H52a2.42,2.42,0,0,0-1.92,1,3,3,0,0,0-.17,2.09l1.22,2.61a5.67,5.67,0,0,1,.7,2.44H50.61a1,1,0,1,0,0,2.09h1.22a10.24,10.24,0,0,1-.7,2.44L50.26,89a1.85,1.85,0,0,0,.17,2.09,2,2,0,0,0,1.92,1h.52c-7,3-11.15,9.23-11.15,17.42,0,13.25,9.24,18.12,15,18.12H79.36c5.75,0,15-4.87,15-18.12,0-8.19-4.18-14.46-11.15-17.42h.7a2.42,2.42,0,0,0,1.92-1A3,3,0,0,0,86,89l-1.22-2.61a5.67,5.67,0,0,1-.7-2.44h.18a3.76,3.76,0,0,0,3.48,2.61,3.68,3.68,0,0,0,3.66-3.66,3.58,3.58,0,0,0-3.66-3.66,3.71,3.71,0,0,0-3.48,2.62h-.18a10,10,0,0,1,.7-2.44L86,76.82a1.85,1.85,0,0,0-.17-2.09,2,2,0,0,0-1.92-1h-.52c2.61-3.32,11-15.86,11-40.43a1.13,1.13,0,0,0-1-1H90.69l1.22-1.91h3.65v1.22a1.13,1.13,0,0,0,1,1h31.54a3.31,3.31,0,1,0,0-6.62ZM87.9,34.3v7.15c0,14.81-8.72,26.49-19.69,26.49S48.52,56.26,48.52,41.45V34.3ZM39.8,36.57l1.92-1.22v2.79A5.4,5.4,0,0,0,39.8,36.57Zm52.63,73c0,11.68-8,16-12.9,16H56.88c-5.05,0-12.89-4.35-12.89-16,0-10.8,7.66-17.42,19.86-17.42h8.71C84.76,92.16,92.43,99,92.43,109.58ZM82.84,87.45l1.22,2.62h0L52,89.89l1.22-2.61a11.89,11.89,0,0,0,1.05-3.49H81.8A11.15,11.15,0,0,0,82.84,87.45ZM84.06,76l-1.22,2.61a11.58,11.58,0,0,0-1,3.49H54.27a13.65,13.65,0,0,0-1.05-3.49L52,76Zm-2.78-2.79a.64.64,0,0,0-.18.53h-26c0-.18-.18-.35-.18-.53C54.79,73,44.16,61,43.81,34.3h2.44v7.15C46.25,57.48,55.83,70,68,70S90,57.65,90,41.45V34.3h2.44C92.08,61,81.45,73,81.28,73.16ZM47.64,32.21,45.55,30.3H89.47l-1.22,1.91Zm80.51-1.74H97.83V28h30.49a1.19,1.19,0,0,1,1.22,1.22A1.34,1.34,0,0,1,128.15,30.47Z"/><circle cx="65.77" cy="55.91" r="1.05"/><circle cx="70.47" cy="55.91" r="1.05"/><circle cx="70.47" cy="64.8" r="1.05"/><circle cx="75" cy="55.91" r="1.05"/><circle cx="61.24" cy="55.91" r="1.05"/><circle cx="56.53" cy="55.91" r="1.05"/><circle cx="79.71" cy="55.91" r="1.05"/><circle cx="63.5" cy="60.44" r="1.05"/><circle cx="68.03" cy="60.44" r="1.05"/><circle cx="72.74" cy="60.44" r="1.05"/><circle cx="77.27" cy="60.44" r="1.05"/><circle cx="58.8" cy="60.44" r="1.05"/><circle cx="65.77" cy="64.8" r="1.05"/><circle cx="63.5" cy="51.9" r="1.05"/><circle cx="68.03" cy="51.9" r="1.05"/><circle cx="72.74" cy="51.9" r="1.05"/><circle cx="77.27" cy="51.9" r="1.05"/><circle cx="81.97" cy="51.9" r="1.05"/><circle cx="58.8" cy="51.9" r="1.05"/><circle cx="54.27" cy="51.9" r="1.05"/></g></g></svg>