<svg xmlns="http://www.w3.org/2000/svg" viewBox="0 0 150 150"><defs><style>.cls-1{fill:#fff;}</style></defs><g id="Layer_2" data-name="Layer 2"><g id="Layer_1-2" data-name="Layer 1"><circle class="cls-1" cx="75" cy="75" r="75"/><path d="M102.26,110.54a10.39,10.39,0,0,1-.62-3.59,18.54,18.54,0,0,1,.62-4.35,36.3,36.3,0,0,0,.87-7.56,50.77,50.77,0,0,0-.74-7.69,62.37,62.37,0,0,1-.75-9V75.94a3.74,3.74,0,0,0-3-3.72,9.75,9.75,0,0,0-9.68-9,2.94,2.94,0,0,0-2.85,2.23H83.91V62.67H82.42V65l-1.86-.75A2.07,2.07,0,0,0,80.93,63a2.22,2.22,0,0,0-2.23-2.23H77.33v-2h3.85A2.94,2.94,0,0,0,84.28,56V54.36A5.56,5.56,0,0,0,88.62,49L89,13.94h.5V10.22a1.82,1.82,0,0,0-1.86-1.86H58a1.82,1.82,0,0,0-1.86,1.86v3.72h1.11L57.74,49a5.55,5.55,0,0,0,4.34,5.33v1.49a3,3,0,0,0,3.1,2.85H69v2H67.66a2.22,2.22,0,0,0-2.23,2.23,2.15,2.15,0,0,0,1.36,2v2.6l-.74.74c-5.46,5.46-10.67,10.54-10.67,18,0,9.79,7.69,17.23,18,17.23s18-7.44,18-17.23c0-7.32-5.21-12.53-10.67-18l-.12-.12,2-.87v2.36H84V66.89h2.23a3.06,3.06,0,0,0,2.86,2.23,3,3,0,0,0,3-3,2.27,2.27,0,0,0-.25-1,8.37,8.37,0,0,1,5.46,7.07,3.7,3.7,0,0,0-3,3.6v2.73a58.61,58.61,0,0,1-.74,8.68,50.77,50.77,0,0,0-.74,7.69,37.58,37.58,0,0,0,.86,7.56,17.1,17.1,0,0,1,.62,4.34,9.73,9.73,0,0,1-.62,3.6,12.25,12.25,0,0,0-.74,4.21h0v10.05l-8.31.37v-2a.63.63,0,0,0-.25-.5h0a.12.12,0,0,0-.12-.12l-2.23-2.36a3.29,3.29,0,0,0,1.36-2.23l1.24-8.81H61.71L63,117.86a3.29,3.29,0,0,0,1.36,2.23L62,122.57h0a.37.37,0,0,0-.13.25v3.35a2,2,0,0,0-1,1.73,1.82,1.82,0,0,0,1.86,1.86H101a1.82,1.82,0,0,0,1.86-1.86V114.51h0A11.94,11.94,0,0,0,102.26,110.54ZM71.75,68.63h2.61v19H71.75Zm3.35-1.49H68v-2h10v2Zm-5.58-53.2h7.07v7.93a.39.39,0,0,1-.37.37H70a.39.39,0,0,1-.37-.37V13.94ZM59.11,49l-.5-35.09H68v7.93a1.82,1.82,0,0,0,1.86,1.86h6.2A1.82,1.82,0,0,0,78,21.87V13.94h9.43L86.88,49a4,4,0,0,1-4,4H63.07A4.08,4.08,0,0,1,59.11,49Zm6,8.19a1.52,1.52,0,0,1-1.61-1.37V54.49H82.79v1.36a1.52,1.52,0,0,1-1.61,1.37H65.06Zm5.33,1.48H76v2H70.39Zm-3,3.6H78.7a.75.75,0,0,1,0,1.49H67.41a.8.8,0,0,1-.74-.75C66.79,62.55,67,62.3,67.41,62.3Zm22.2,24.06c0,9-7.07,15.75-16.49,15.75s-16.5-6.82-16.5-15.75c0-6.7,5-11.66,10.3-16.87l.74-.74h2.73V88.47a.8.8,0,0,0,.74.74h4.1a.8.8,0,0,0,.74-.74V68.63H78.7l.74.74C84.65,74.7,89.61,79.54,89.61,86.36Zm-10-19.47V65.4l1.61.75Zm10.79-.74a1.49,1.49,0,1,1-1.49-1.49A1.51,1.51,0,0,1,90.36,66.15ZM94.2,95h7.44v1.24H94.32A3.93,3.93,0,0,1,94.2,95Zm1.36-18.35h4.59v.86H95.69v-.86ZM95.69,79h4.46a56.56,56.56,0,0,0,.75,8.56c.25,2,.49,4,.62,6H94.2c.12-2.11.37-4,.62-6A81.42,81.42,0,0,0,95.69,79Zm2.23-5.33A2.28,2.28,0,0,1,100,75.2H95.81A2.17,2.17,0,0,1,97.92,73.71Zm-2.85,28.65a36.35,36.35,0,0,1-.75-4.59h7.2a40.77,40.77,0,0,1-.75,4.59,18.62,18.62,0,0,0-.62,4.59,12.14,12.14,0,0,0,.75,4.09,13.07,13.07,0,0,1,.74,3.84H94.32a15.35,15.35,0,0,1,.75-3.84,12.16,12.16,0,0,0,.74-4.09C95.69,105.33,95.32,103.84,95.07,102.36ZM63.32,126.17v-2.11h19.6v1.24Zm15.88-6.7h-.87v-4.59c0-.12.12-.25.37-.25s.37.13.37.25v4.59Zm-15.75-8.68H82.79l-1,7.07a2.5,2.5,0,0,1-1,1.49V115a1.86,1.86,0,0,0-3.72,0v4.58H75.23V115a1.86,1.86,0,0,0-3.72,0v4.58H69.65V115a1.86,1.86,0,0,0-3.72,0v4.34a1.84,1.84,0,0,1-1-1.49Zm10,8.68h-.87v-4.59c0-.12.13-.25.37-.25s.38.13.38.25v4.59Zm-5.7,0h-.87v-4.59c0-.12.12-.25.37-.25s.37.13.37.25v4.59Zm-2,1.49H80.31l1.49,1.61H64.31Zm35.72,7.32a.4.4,0,0,1-.37.37H62.7c-.25,0-.37-.25-.37-.5a.53.53,0,0,1,.5-.49l29.88-1.24h0l8.93-.38v2.24Zm0-3.72-7.44.37v-8.56h7.44Z"/><circle cx="71.51" cy="50.4" r="0.74"/><circle cx="68.28" cy="50.4" r="0.74"/><circle cx="65.06" cy="50.4" r="0.74"/><circle cx="74.73" cy="50.4" r="0.74"/><circle cx="77.95" cy="50.4" r="0.74"/><circle cx="81.18" cy="50.4" r="0.74"/><circle cx="71.51" cy="45.06" r="0.74"/><circle cx="68.28" cy="45.06" r="0.74"/><circle cx="65.06" cy="45.06" r="0.74"/><circle cx="74.73" cy="45.06" r="0.74"/><circle cx="77.95" cy="45.06" r="0.74"/><circle cx="81.18" cy="45.06" r="0.74"/><circle cx="61.83" cy="45.06" r="0.74"/><circle cx="84.4" cy="45.06" r="0.74"/><circle cx="69.89" cy="47.79" r="0.74"/><circle cx="66.67" cy="47.79" r="0.74"/><circle cx="73.12" cy="47.79" r="0.74"/><circle cx="76.34" cy="47.79" r="0.74"/><circle cx="79.57" cy="47.79" r="0.74"/><circle cx="63.45" cy="47.79" r="0.74"/><circle cx="82.79" cy="47.79" r="0.74"/><circle cx="73.12" cy="82.51" r="0.74"/><circle cx="73.12" cy="78.79" r="0.74"/><path d="M73.12,70.36a.85.85,0,0,0-.87.87c0,.5.37.74.87.74a.71.71,0,0,0,.74-.74A.83.83,0,0,0,73.12,70.36Z"/><circle cx="73.12" cy="74.95" r="0.74"/><circle cx="73.12" cy="86.36" r="0.87"/></g></g></svg>