<?xml version="1.0" encoding="utf-8"?>
<!-- Generator: Adobe Illustrator 24.1.1, SVG Export Plug-In . SVG Version: 6.00 Build 0)  -->
<svg version="1.1" id="Layer_1" xmlns="http://www.w3.org/2000/svg" xmlns:xlink="http://www.w3.org/1999/xlink" x="0px" y="0px"
	 viewBox="0 0 150 150" style="enable-background:new 0 0 150 150;" xml:space="preserve">
<style type="text/css">
	.st0{fill:#EBB694;}
</style>
<g id="Layer_2_1_">
	<g id="Layer_1-2">
		<circle class="st0" cx="75" cy="75" r="75"/>
		<path d="M63.4,66.2c4.9-8.5,11.9-15.1,19.7-18.6C76.4,33.7,64,25.6,52.3,26.5C57.7,32.8,62.2,43.8,63,62
			C63.2,63.4,63.4,64.8,63.4,66.2z"/>
		<path d="M52.9,62.7c-0.8-20.2-6.8-28.5-11.5-32C29.9,38.8,25.6,57.4,31.6,75c4.7,13.5,14.4,23,24.6,26c-0.7-5.4-0.5-10.9,0.4-16.2
			C54.5,77.6,53.3,70.2,52.9,62.7z"/>
		<path d="M109.2,55.4c-4.7,3.5-10.7,11.8-11.5,31.8c-0.8,18.2-6,30.7-12.5,39.3c0.8,0,1.6,0.2,2.5,0.2c12.7,0,25.7-10.8,31.4-27
			C125.1,82,120.8,63.5,109.2,55.4z"/>
		<path d="M98.1,51.5h-2c-12.7,0-25.7,10.5-31.4,27c-6.2,17.8-1.6,36.2,9.9,44.3c6.4-7,12.1-18,12.7-35.7
			C88.3,68.6,92.8,57.8,98.1,51.5z"/>
	</g>
</g>
</svg>
