<svg xmlns="http://www.w3.org/2000/svg" viewBox="0 0 150 150"><defs><style>.cls-1{fill:#fff;}</style></defs><g id="Layer_2" data-name="Layer 2"><g id="Layer_1-2" data-name="Layer 1"><circle class="cls-1" cx="75" cy="75" r="75"/><path d="M63.42,66.18c4.93-8.55,11.92-15.13,19.73-18.64C76.37,33.73,64,25.61,52.33,26.49,57.67,32.85,62.19,43.81,63,62A31.2,31.2,0,0,1,63.42,66.18Z"/><path d="M52.94,62.67c-.82-20.17-6.78-28.51-11.5-32C29.93,38.77,25.62,57.41,31.58,75,36.3,88.54,46,98,56.23,101a53.68,53.68,0,0,1,.41-16.22A94.33,94.33,0,0,1,52.94,62.67Z"/><path d="M109.24,55.43c-4.73,3.51-10.68,11.84-11.51,31.8-.82,18.2-6,30.69-12.53,39.25.82,0,1.64.22,2.47.22,12.73,0,25.68-10.75,31.43-27C125.06,82,120.75,63.55,109.24,55.43Z"/><path d="M98.14,51.49h-2c-12.74,0-25.68,10.52-31.44,27-6.16,17.76-1.64,36.18,9.87,44.29,6.37-7,12.12-18,12.74-35.74C88.28,68.59,92.8,57.85,98.14,51.49Z"/></g></g></svg>