<svg xmlns="http://www.w3.org/2000/svg" viewBox="0 0 150 150"><defs><style>.cls-1{fill:#fff;}</style></defs><g id="Layer_2" data-name="Layer 2"><g id="Layer_1-2" data-name="Layer 1"><circle class="cls-1" cx="75" cy="75" r="75"/><path d="M128.8,59.7a15.57,15.57,0,0,0-17.55-11.56l-7.48,1,2-14.28a6.33,6.33,0,0,0-1.3-4.76,5.36,5.36,0,0,0-4.56-2H29a6.31,6.31,0,0,0-4.56,2,6.33,6.33,0,0,0-1.3,4.76L25.07,49.5c.33,3.4.66,6.8.66,10.54V82.82c0,3.4-.33,7.14-.66,10.54l-1,7.48c-.33,4.08-.65,8.16-.65,12.24v4.08A4.55,4.55,0,0,0,28,121.92h72.51a4.55,4.55,0,0,0,4.56-4.76v-4.08c0-4.08-.33-8.16-.65-12.24l-.33-2.38a29.14,29.14,0,0,0,11.06-9.18l11-15.64A16.42,16.42,0,0,0,128.8,59.7Zm-27.64,57.46a.71.71,0,0,1-.65.68H28a.72.72,0,0,1-.65-.68v-4.08c0-4.08.33-7.82.65-11.9l1-7.48c.32-3.74.65-7.48.65-11.22V59.7c0-3.74-.33-7.48-.65-10.88L26.7,34.2A2.61,2.61,0,0,1,27,32.5a2.4,2.4,0,0,1,1.62-.68H99.21c.65,0,1,.34,1.63.68a1.54,1.54,0,0,1,.32,1.7l-2,14.62c-.32,3.74-.65,7.14-.65,10.88V82.48c0,3.74.33,7.48.65,11.22l1,7.48c.32,3.74.65,7.82.65,11.9v4.08ZM123,71.26l-11,15.64A24.85,24.85,0,0,1,103.44,94V93c-.32-3.4-.65-7.14-.65-10.54V59.7a42.38,42.38,0,0,1,.33-6.46l8.45-1.36a11.53,11.53,0,0,1,13.33,8.5A12.64,12.64,0,0,1,123,71.26Z"/></g></g></svg>