<?xml version="1.0" encoding="utf-8"?>
<!-- Generator: Adobe Illustrator 24.1.1, SVG Export Plug-In . SVG Version: 6.00 Build 0)  -->
<svg version="1.1" id="Layer_1" xmlns="http://www.w3.org/2000/svg" xmlns:xlink="http://www.w3.org/1999/xlink" x="0px" y="0px"
	 viewBox="0 0 150 150" style="enable-background:new 0 0 150 150;" xml:space="preserve">
<style type="text/css">
	.st0{fill:#FFFFFF;}
</style>
<circle class="st0" cx="75" cy="75" r="75"/>
<g>
	<path d="M97.3,105.6h-0.5L86.4,59c-0.1-0.4-0.5-0.7-0.9-0.7H85v-3c0-0.5-0.4-1-0.9-1.1h-0.6c-1.8-4.2-5.7-7-10.3-7.4v-1.6
		c0-2.7,1.7-4.1,1.7-6.9h-8.1c0,2.7,1.7,4.3,1.7,6.9v1.6c-4.5,0.5-8.3,3.4-10.2,7.4h-0.6c-0.5,0.1-0.9,0.5-0.9,1.1v3h-0.5
		c-0.4,0-0.8,0.3-0.9,0.7l-8.1,36.3C39,95,33.2,88.5,33.2,79.4l0.3-12.9c0-10.1-7-18.2-15.7-18.2v2.1c7.6,0,13.9,7.3,13.9,16
		l-0.3,12.9c0,10.1,6.4,17.5,15.4,18.1l-1.9,8.2h-0.5c-0.6,0.1-1,0.6-0.9,1.2c0.1,0.5,0.4,0.8,0.9,0.9l0,0l-0.6,2.8
		c0,0.3,0,0.6,0.2,0.9c0.2,0.2,0.5,0.3,0.8,0.4H97c0.3,0,0.6-0.1,0.8-0.4c0.1-0.3,0.2-0.6,0.2-0.9l-0.6-2.7l0,0
		c0.6-0.1,1-0.7,0.9-1.2C98.1,106.1,97.7,105.7,97.3,105.6L97.3,105.6z M69.9,48.8h2c3.9,0,7.5,2.1,9.5,5.5h-21
		C62.3,50.8,66,48.7,69.9,48.8z M58.6,56.4h24.8v2H58.6V56.4z M57.1,60.3h27.7l10.1,45.4H47L57.1,60.3z M95.7,109.5H46l0.5-1.8h48.9
		L95.7,109.5z"/>
	<path d="M137.6,81.5l-22.3-34.2c-0.7-1.3-2.4-1.7-3.6-1c-0.1,0.1-0.2,0.2-0.4,0.3l-0.2,0.2c-2.6-3.2-7-5.5-11.5-3.5
		c-10.1,4.6-12.8,15.9-8.4,33.5l1.7-0.5c-4.3-16.5-1.9-26.6,7.3-30.8c3.5-1.6,7,0.2,9.3,2.8l-1.8,1.6c-1.3,1.2-1.5,3.1-0.6,4.6
		l22.3,34.4c0.5,0.8,1.4,1.3,2.3,1.2c0.6,0,1.3-0.2,1.7-0.7l3.5-3C138.4,85.1,138.6,83.1,137.6,81.5z M113,48.1
		c0.3,0,0.6,0.2,0.8,0.5l22.3,34.2c0.3,0.5,0.3,1.2-0.1,1.6l-0.1,0.2c-3.8-5.7-20.4-31.5-23.6-36.1l0.2-0.2
		C112.6,48.2,112.9,48.1,113,48.1z M132.4,87.6c-0.3,0.3-0.9,0.3-1.2,0c-0.1-0.1-0.1-0.1-0.1-0.2L108.7,53c-0.3-0.5-0.3-1.2,0.2-1.6
		l1.8-1.6c2.9,4.6,19.9,30.5,23.6,36.3L132.4,87.6z"/>
</g>
</svg>
