<svg xmlns="http://www.w3.org/2000/svg" viewBox="0 0 150 150"><defs><style>.cls-1{fill:#fff;}</style></defs><g id="Layer_2" data-name="Layer 2"><g id="Layer_1-2" data-name="Layer 1"><circle class="cls-1" cx="75" cy="75" r="75"/><path d="M96.9,95.15h-.46L86,48.56a.84.84,0,0,0-.91-.7h-.46v-3a1.07,1.07,0,0,0-.92-1.06h-.61a12.43,12.43,0,0,0-10.25-7.44V34.75c0-2.66,1.68-4.08,1.68-6.91h-8.1c0,2.66,1.68,4.25,1.68,6.91v1.59A13,13,0,0,0,57.9,43.78h-.61a1.07,1.07,0,0,0-.91,1.06v3h-.46a1,1,0,0,0-.92.7L46.89,84.88C38.64,84.52,32.83,78,32.83,68.94L33.13,56c0-10.09-7-18.24-15.75-18.24v2.12c7.65,0,13.92,7.27,13.92,15.95L31,68.76c0,10.1,6.42,17.54,15.45,18.07L44.6,95h-.46a1.07,1.07,0,0,0,0,2.12h0l-.61,2.84a1.5,1.5,0,0,0,.15.88,1.1,1.1,0,0,0,.77.36H96.59a1.08,1.08,0,0,0,.77-.36,1.5,1.5,0,0,0,.15-.88l-.61-2.66h0a1.08,1.08,0,0,0,0-2.13ZM69.53,38.29h2A10.81,10.81,0,0,1,81,43.78h-21A10.78,10.78,0,0,1,69.53,38.29ZM58.21,45.91H83v2H58.21ZM56.68,49.8H84.36L94.45,95.15H46.59ZM95.37,99.05H45.67l.46-1.77H95.07Z"/><path d="M137.27,71.06,115,36.87a2.66,2.66,0,0,0-4-.71l-.15.18c-2.6-3.19-7-5.49-11.47-3.54-10.1,4.6-12.85,15.94-8.41,33.48l1.68-.53C88.34,49.27,90.78,39.18,100,34.92c3.52-1.59,7,.18,9.33,2.84l-1.84,1.59a3.73,3.73,0,0,0-.61,4.61l22.33,34.36a2.6,2.6,0,0,0,2.29,1.24,2.12,2.12,0,0,0,1.68-.7l3.52-3A3.79,3.79,0,0,0,137.27,71.06ZM112.65,37.58a.85.85,0,0,1,.77.53L135.74,72.3a1.25,1.25,0,0,1-.15,1.6l-.15.17C131.61,68.4,115,42.54,111.89,37.94l.15-.18C112.19,37.76,112.5,37.58,112.65,37.58Zm19.42,39.5a.87.87,0,0,1-1.37-.17L108.37,42.54a1.23,1.23,0,0,1,.15-1.59l1.84-1.6c2.9,4.61,19.88,30.47,23.55,36.32Z"/></g></g></svg>